<svg xmlns="http://www.w3.org/2000/svg" viewBox="0 0 52 56" shape-rendering="crispEdges">
<rect x="28" y="0" width="4" height="4" fill="#38342A"/>
<rect x="32" y="4" width="4" height="4" fill="#38342A"/>
<rect x="28" y="4" width="4" height="4" fill="#DBD0B4"/>
<rect x="28" y="8" width="4" height="4" fill="#C6BCA5"/>
<rect x="36" y="8" width="4" height="4" fill="#38342A"/>
<rect x="32" y="8" width="4" height="4" fill="#DBD0B4"/>
<rect x="24" y="4" width="4" height="8" fill="#38342A"/>
<rect x="28" y="12" width="4" height="4" fill="#38342A"/>
<rect x="24" y="12" width="4" height="4" fill="#DBD0B4"/>
<rect x="20" y="12" width="4" height="4" fill="#38342A"/>
<rect x="40" y="12" width="4" height="4" fill="#38342A"/>
<rect x="32" y="12" width="4" height="4" fill="#BCB29C"/>
<rect x="36" y="12" width="4" height="4" fill="#DBD0B4"/>
<rect x="24" y="16" width="8" height="4" fill="#DBD0B4"/>
<rect x="32" y="16" width="4" height="4" fill="#38342A"/>
<rect x="40" y="16" width="4" height="4" fill="#DBD0B4"/>
<rect x="44" y="16" width="4" height="4" fill="#38342A"/>
<rect x="20" y="16" width="4" height="4" fill="#C6BCA5"/>
<rect x="36" y="16" width="4" height="4" fill="#BCB29C"/>
<rect x="16" y="16" width="4" height="4" fill="#38342A"/>
<rect x="44" y="20" width="8" height="4" fill="#38342A"/>
<rect x="12" y="20" width="4" height="4" fill="#38342A"/>
<rect x="16" y="20" width="8" height="4" fill="#DBD0B4"/>
<rect x="36" y="20" width="4" height="4" fill="#38342A"/>
<rect x="24" y="20" width="4" height="4" fill="#C6BCA5"/>
<rect x="40" y="20" width="4" height="4" fill="#BCB29C"/>
<rect x="28" y="20" width="8" height="4" fill="#DBD0B4"/>
<rect x="36" y="24" width="4" height="4" fill="#BCB29C"/>
<rect x="28" y="24" width="8" height="4" fill="#C6BCA5"/>
<rect x="12" y="24" width="16" height="4" fill="#DBD0B4"/>
<rect x="40" y="24" width="4" height="4" fill="#38342A"/>
<rect x="48" y="24" width="4" height="4" fill="#38342A"/>
<rect x="44" y="24" width="4" height="4" fill="#807A6D"/>
<rect x="8" y="24" width="4" height="4" fill="#38342A"/>
<rect x="16" y="28" width="4" height="4" fill="#C6BCA5"/>
<rect x="32" y="28" width="8" height="4" fill="#BCB29C"/>
<rect x="4" y="28" width="4" height="4" fill="#38342A"/>
<rect x="20" y="28" width="12" height="4" fill="#DBD0B4"/>
<rect x="8" y="28" width="8" height="4" fill="#DBD0B4"/>
<rect x="40" y="28" width="8" height="4" fill="#38342A"/>
<rect x="4" y="32" width="4" height="4" fill="#AEA694"/>
<rect x="36" y="32" width="4" height="4" fill="#38342A"/>
<rect x="28" y="32" width="4" height="4" fill="#DBD0B4"/>
<rect x="32" y="32" width="4" height="4" fill="#BCB29C"/>
<rect x="8" y="32" width="12" height="4" fill="#DBD0B4"/>
<rect x="20" y="32" width="8" height="4" fill="#C6BCA5"/>
<rect x="8" y="36" width="4" height="4" fill="#AEA694"/>
<rect x="24" y="36" width="8" height="4" fill="#BCB29C"/>
<rect x="0" y="32" width="4" height="8" fill="#38342A"/>
<rect x="4" y="36" width="4" height="4" fill="#9A927E"/>
<rect x="32" y="36" width="4" height="4" fill="#38342A"/>
<rect x="12" y="36" width="12" height="4" fill="#DBD0B4"/>
<rect x="24" y="40" width="4" height="4" fill="#BCB29C"/>
<rect x="4" y="40" width="4" height="4" fill="#38342A"/>
<rect x="16" y="40" width="8" height="4" fill="#DBD0B4"/>
<rect x="8" y="40" width="4" height="4" fill="#9A927E"/>
<rect x="12" y="40" width="4" height="4" fill="#AEA694"/>
<rect x="28" y="40" width="4" height="4" fill="#38342A"/>
<rect x="16" y="44" width="4" height="4" fill="#AEA694"/>
<rect x="20" y="44" width="4" height="4" fill="#BCB29C"/>
<rect x="8" y="44" width="4" height="4" fill="#38342A"/>
<rect x="24" y="44" width="4" height="4" fill="#38342A"/>
<rect x="12" y="44" width="4" height="4" fill="#9A927E"/>
<rect x="20" y="48" width="8" height="4" fill="#38342A"/>
<rect x="16" y="48" width="4" height="4" fill="#9A927E"/>
<rect x="12" y="48" width="4" height="4" fill="#38342A"/>
<rect x="16" y="52" width="8" height="4" fill="#38342A"/>
</svg>
