<svg xmlns="http://www.w3.org/2000/svg" viewBox="0 0 128 128" shape-rendering="crispEdges">
<rect x="7" y="3" width="114" height="7" fill="#8B8E94"/>
<rect x="21" y="10" width="36" height="7" fill="#E6F2F1"/>
<rect x="57" y="10" width="64" height="7" fill="#D5E0DF"/>
<rect x="7" y="10" width="14" height="7" fill="#D5E0DF"/>
<rect x="14" y="17" width="7" height="7" fill="#AAB0B3"/>
<rect x="28" y="17" width="15" height="7" fill="#C7D1D1"/>
<rect x="85" y="17" width="22" height="7" fill="#BDC7C7"/>
<rect x="57" y="17" width="7" height="7" fill="#C7D1D1"/>
<rect x="71" y="17" width="14" height="7" fill="#66534D"/>
<rect x="114" y="17" width="7" height="7" fill="#BDC7C7"/>
<rect x="21" y="17" width="7" height="7" fill="#BDC7C7"/>
<rect x="7" y="17" width="7" height="7" fill="#E6F2F1"/>
<rect x="64" y="17" width="7" height="7" fill="#BDC7C7"/>
<rect x="107" y="17" width="7" height="7" fill="#AAB0B3"/>
<rect x="43" y="17" width="14" height="7" fill="#66534D"/>
<rect x="21" y="24" width="15" height="7" fill="#BDC7C7"/>
<rect x="43" y="24" width="7" height="7" fill="#8D7168"/>
<rect x="14" y="24" width="7" height="7" fill="#C7D1D1"/>
<rect x="36" y="24" width="7" height="7" fill="#66534D"/>
<rect x="78" y="24" width="7" height="7" fill="#8D7168"/>
<rect x="92" y="24" width="29" height="7" fill="#BDC7C7"/>
<rect x="7" y="24" width="7" height="7" fill="#BDC7C7"/>
<rect x="85" y="24" width="7" height="7" fill="#66534D"/>
<rect x="57" y="24" width="14" height="7" fill="#C7D1D1"/>
<rect x="50" y="24" width="7" height="15" fill="#66534D"/>
<rect x="28" y="31" width="8" height="8" fill="#66534D"/>
<rect x="71" y="24" width="7" height="15" fill="#66534D"/>
<rect x="43" y="31" width="7" height="8" fill="#E7D9D3"/>
<rect x="78" y="31" width="7" height="8" fill="#E7D9D3"/>
<rect x="21" y="31" width="7" height="8" fill="#C7D1D1"/>
<rect x="57" y="31" width="14" height="8" fill="#A44E37"/>
<rect x="85" y="31" width="7" height="8" fill="#8D7168"/>
<rect x="14" y="31" width="7" height="8" fill="#BDC7C7"/>
<rect x="7" y="31" width="7" height="8" fill="#D5E0DF"/>
<rect x="36" y="31" width="7" height="8" fill="#8D7168"/>
<rect x="100" y="31" width="14" height="8" fill="#BDC7C7"/>
<rect x="92" y="31" width="8" height="8" fill="#66534D"/>
<rect x="114" y="31" width="7" height="8" fill="#AAB0B3"/>
<rect x="71" y="39" width="7" height="7" fill="#A44E37"/>
<rect x="78" y="39" width="7" height="7" fill="#C7A3B9"/>
<rect x="43" y="39" width="7" height="7" fill="#C7A3B9"/>
<rect x="50" y="39" width="7" height="7" fill="#A44E37"/>
<rect x="36" y="39" width="7" height="7" fill="#66534D"/>
<rect x="100" y="39" width="21" height="7" fill="#BDC7C7"/>
<rect x="57" y="39" width="14" height="7" fill="#BF6134"/>
<rect x="85" y="39" width="7" height="7" fill="#66534D"/>
<rect x="71" y="46" width="7" height="7" fill="#D7742F"/>
<rect x="50" y="46" width="7" height="7" fill="#D7742F"/>
<rect x="78" y="46" width="14" height="7" fill="#BF6134"/>
<rect x="28" y="39" width="8" height="14" fill="#A44E37"/>
<rect x="92" y="39" width="8" height="14" fill="#A44E37"/>
<rect x="36" y="46" width="14" height="7" fill="#BF6134"/>
<rect x="92" y="53" width="8" height="7" fill="#BF6134"/>
<rect x="57" y="46" width="14" height="14" fill="#E68C37"/>
<rect x="28" y="53" width="8" height="7" fill="#BF6134"/>
<rect x="36" y="53" width="21" height="7" fill="#D7742F"/>
<rect x="71" y="53" width="21" height="7" fill="#D7742F"/>
<rect x="100" y="46" width="14" height="14" fill="#BDC7C7"/>
<rect x="7" y="39" width="21" height="21" fill="#BDC7C7"/>
<rect x="21" y="60" width="7" height="7" fill="#BF6134"/>
<rect x="0" y="10" width="7" height="57" fill="#8B8E94"/>
<rect x="107" y="60" width="7" height="7" fill="#BDC7C7"/>
<rect x="43" y="60" width="7" height="7" fill="#E7D9D3"/>
<rect x="57" y="60" width="7" height="7" fill="#E68C37"/>
<rect x="92" y="60" width="8" height="7" fill="#D7742F"/>
<rect x="121" y="10" width="7" height="57" fill="#8B8E94"/>
<rect x="50" y="60" width="7" height="7" fill="#D7742F"/>
<rect x="7" y="60" width="14" height="7" fill="#BDC7C7"/>
<rect x="64" y="60" width="14" height="7" fill="#D7742F"/>
<rect x="28" y="60" width="8" height="7" fill="#D7742F"/>
<rect x="100" y="60" width="7" height="7" fill="#BF6134"/>
<rect x="78" y="60" width="7" height="7" fill="#E7D9D3"/>
<rect x="85" y="60" width="7" height="14" fill="#F9F4F4"/>
<rect x="114" y="46" width="7" height="28" fill="#AAB0B3"/>
<rect x="92" y="67" width="8" height="7" fill="#BF6134"/>
<rect x="36" y="60" width="7" height="14" fill="#F9F4F4"/>
<rect x="28" y="67" width="8" height="7" fill="#BF6134"/>
<rect x="100" y="67" width="14" height="7" fill="#C7D1D1"/>
<rect x="78" y="67" width="7" height="7" fill="#262A33"/>
<rect x="50" y="67" width="28" height="7" fill="#D7742F"/>
<rect x="43" y="67" width="7" height="7" fill="#262A33"/>
<rect x="7" y="67" width="21" height="7" fill="#BDC7C7"/>
<rect x="85" y="74" width="7" height="7" fill="#E7D9D3"/>
<rect x="43" y="74" width="7" height="7" fill="#13151A"/>
<rect x="92" y="74" width="8" height="7" fill="#D7742F"/>
<rect x="78" y="74" width="7" height="7" fill="#13151A"/>
<rect x="57" y="74" width="14" height="7" fill="#BF6134"/>
<rect x="14" y="74" width="7" height="7" fill="#AAB0B3"/>
<rect x="50" y="74" width="7" height="7" fill="#D7742F"/>
<rect x="107" y="74" width="14" height="7" fill="#AAB0B3"/>
<rect x="28" y="74" width="8" height="7" fill="#D7742F"/>
<rect x="71" y="74" width="7" height="7" fill="#D7742F"/>
<rect x="36" y="74" width="7" height="7" fill="#E7D9D3"/>
<rect x="21" y="74" width="7" height="7" fill="#A44E37"/>
<rect x="100" y="74" width="7" height="7" fill="#A44E37"/>
<rect x="36" y="81" width="56" height="7" fill="#D7742F"/>
<rect x="36" y="88" width="14" height="8" fill="#BF6134"/>
<rect x="57" y="88" width="14" height="8" fill="#13151A"/>
<rect x="78" y="88" width="14" height="8" fill="#BF6134"/>
<rect x="100" y="81" width="21" height="15" fill="#AAB0B3"/>
<rect x="14" y="81" width="14" height="15" fill="#AAB0B3"/>
<rect x="28" y="81" width="8" height="15" fill="#A44E37"/>
<rect x="92" y="81" width="8" height="15" fill="#A44E37"/>
<rect x="71" y="88" width="7" height="15" fill="#F9F4F4"/>
<rect x="36" y="96" width="14" height="7" fill="#A44E37"/>
<rect x="57" y="96" width="14" height="7" fill="#E7D9D3"/>
<rect x="14" y="96" width="22" height="7" fill="#AAB0B3"/>
<rect x="78" y="96" width="14" height="7" fill="#A44E37"/>
<rect x="92" y="96" width="29" height="7" fill="#AAB0B3"/>
<rect x="50" y="88" width="7" height="15" fill="#F9F4F4"/>
<rect x="7" y="74" width="7" height="29" fill="#BDC7C7"/>
<rect x="78" y="103" width="29" height="7" fill="#AAB0B3"/>
<rect x="21" y="103" width="29" height="7" fill="#AAB0B3"/>
<rect x="14" y="103" width="7" height="7" fill="#757580"/>
<rect x="107" y="103" width="7" height="7" fill="#757580"/>
<rect x="50" y="103" width="28" height="7" fill="#A44E37"/>
<rect x="114" y="103" width="7" height="14" fill="#AAB0B3"/>
<rect x="21" y="110" width="86" height="7" fill="#AAB0B3"/>
<rect x="121" y="67" width="7" height="50" fill="#757580"/>
<rect x="107" y="110" width="7" height="7" fill="#A0A5A9"/>
<rect x="7" y="103" width="7" height="14" fill="#AAB0B3"/>
<rect x="14" y="110" width="7" height="7" fill="#A0A5A9"/>
<rect x="0" y="67" width="7" height="50" fill="#757580"/>
<rect x="7" y="117" width="114" height="7" fill="#757580"/>
</svg>
